<?xml version="1.0"?>
<svg viewBox="0 0 190 136" xmlns="http://www.w3.org/2000/svg" xmlns:svg="http://www.w3.org/2000/svg" enable-background="new 0 0 1200 1200" version="1.1" xml:space="preserve">
 <!-- Created with SVG-edit - https://github.com/SVG-Edit/svgedit-->
 <g class="layer">
  <title>Layer 1</title>
  <g id="svg_1">
   <g id="svg_2">
    <path d="m0,12.49l0,0l0,111.38c0,6.88 5.57,12.45 12.45,12.45l155.34,0c6.88,0 12.45,-5.57 12.45,-12.45l0,-12.45l0,-86.52l-167.79,0c-6.87,0 -12.43,-5.55 -12.45,-12.41z" fill="#B06C45" id="svg_3"/>
    <path d="m180.24,12.49c0,0.01 0,0.02 0,0.03l0,-0.03l0,0z" fill="#B06C45" id="svg_4"/>
   </g>
   <g id="svg_5">
    <path d="m12.45,0c-6.88,0 -12.45,5.57 -12.45,12.45l0,0c0,6.88 5.57,12.45 12.45,12.45l155.34,0c6.88,0 12.45,-5.57 12.45,-12.45l0,0c0,-6.88 -5.57,-12.45 -12.45,-12.45l-155.34,0z" fill="#9A5F3B" id="svg_6"/>
    <g id="svg_7">
     <path d="m167.79,130.96l-5.88,0l0,-2.3l5.88,0c0.5,0 0.98,-0.08 1.45,-0.23l0.7,2.19c-0.7,0.23 -1.42,0.34 -2.15,0.34zm-13.57,0l-7.68,0l0,-2.3l7.68,0l0,2.3zm-15.36,0l-7.68,0l0,-2.3l7.68,0l0,2.3zm-15.36,0l-7.68,0l0,-2.3l7.68,0l0,2.3zm-15.35,0l-7.68,0l0,-2.3l7.68,0l0,2.3zm-15.35,0l-7.68,0l0,-2.3l7.68,0l0,2.3zm-15.35,0l-7.68,0l0,-2.3l7.68,0l0,2.3zm-15.35,0l-7.68,0l0,-2.3l7.68,0l0,2.3zm-15.36,0l-7.67,0l0,-2.3l7.67,0l0,2.3zm-15.35,0l-7.68,0l0,-2.3l7.68,0l0,2.3zm-15.36,0l-7.68,0l0,-2.3l7.68,0l0,2.3zm158.85,-7.25l-2.3,0l0,-7.66l2.3,0l0,7.66z" fill="#FFFAD1" id="svg_8"/>
     <rect fill="#FFFAD1" height="3.83" id="svg_9" width="2.3" x="172.57" y="104.95"/>
    </g>
    <g id="svg_10">
     <rect fill="#FFFAD1" height="3.83" id="svg_11" width="2.3" x="172.57" y="55.62"/>
     <rect fill="#FFFAD1" height="6.79" id="svg_12" width="2.3" x="172.57" y="42.04"/>
     <polygon fill="#FFFAD1" id="svg_13" points="174.87103366851807,35.24300765991211 172.57299900054932,35.24300765991211 172.57299900054932,32.56197738647461 169.89196872711182,32.56197738647461 169.89196872711182,30.26400375366211 174.87103366851807,30.26400375366211 "/>
     <path d="m162.5,32.56l-7.39,0l0,-2.3l7.39,0l0,2.3zm-14.78,0l-7.39,0l0,-2.3l7.39,0l0,2.3zm-14.78,0l-7.4,0l0,-2.3l7.4,0l0,2.3zm-14.79,0l-7.39,0l0,-2.3l7.39,0l0,2.3zm-14.78,0l-7.39,0l0,-2.3l7.39,0l0,2.3zm-14.78,0l-7.4,0l0,-2.3l7.4,0l0,2.3zm-14.79,0l-7.39,0l0,-2.3l7.39,0l0,2.3zm-14.78,0l-7.4,0l0,-2.3l7.4,0l0,2.3zm-14.79,0l-7.39,0l0,-2.3l7.39,0l0,2.3zm-14.78,0l-7.39,0l0,-2.3l7.39,0l0,2.3zm-14.78,0l-7.4,0l0,-2.3l7.4,0l0,2.3z" fill="#FFFAD1" id="svg_14"/>
    </g>
    <path d="m183.64,65.97l-18.85,0c-7.82,0 -14.16,6.33 -14.16,14.16l0,4.15c0,7.82 6.34,14.16 14.16,14.16l18.85,0c3.52,0 6.37,-2.85 6.37,-6.37l0,-19.73c0,-3.52 -2.85,-6.37 -6.37,-6.37z" fill="#9A5F3B" id="svg_15"/>
    <path d="m174.22,82.2c0,4.13 -3.35,7.48 -7.48,7.48c-4.13,0 -7.47,-3.35 -7.47,-7.48c0,-4.13 3.34,-7.47 7.47,-7.47c4.13,0 7.48,3.34 7.48,7.47z" fill="#FFFAD1" id="svg_16"/>
    <path d="m15.64,24.9l164.6,0l0,-11.37l-153.23,0c-6.28,0 -11.37,5.09 -11.37,11.37z" fill="#FFFAD1" id="svg_17"/>
   </g>
  </g>
 </g>
</svg>