<?xml version="1.0"?>
<svg viewBox="0 0 210 200" xmlns="http://www.w3.org/2000/svg" xmlns:svg="http://www.w3.org/2000/svg" enable-background="new 0 0 1200 1200" version="1.1" xml:space="preserve">
 <!-- Created with SVG-edit - https://github.com/SVG-Edit/svgedit-->
 <title>wallet_full</title>
 <g class="layer">
  <title>Layer 1</title>
  <g id="svg_1">
   <path d="m17.41,66.07c-6.87,0 -12.45,5.58 -12.45,12.45l0,0c0,6.88 5.58,12.45 12.45,12.45l155.34,0c6.88,0 12.45,-5.57 12.45,-12.45l0,0c0,-6.87 -5.57,-12.45 -12.45,-12.45l-155.34,0z" fill="#9A5F3B" id="svg_2"/>
   <path d="m20.6,90.97l164.6,0l0,-11.37l-153.23,0c-6.28,0 -11.37,5.09 -11.37,11.37z" fill="#FFFAD1" id="svg_3"/>
   <g id="svg_4">
    <g id="svg_5">
     <rect fill="#00A083" height="83.77" id="svg_6" transform="matrix(0.9493 -0.3145 0.3145 0.9493 -195.024 195.888)" width="151.71" x="258.11" y="-65.73"/>
     <path d="m184.94,65.86l-12.54,-37.86c-7.19,2.38 -14.95,-1.51 -17.33,-8.7l-102.34,33.91c2.38,7.18 -1.51,14.94 -8.7,17.32l12.54,37.86c7.19,-2.38 14.95,1.51 17.33,8.7l102.34,-33.91c-2.38,-7.18 1.51,-14.94 8.7,-17.32z" fill="#007863" id="svg_7"/>
     <path d="m136.63,60.86c4.05,12.23 -2.58,25.43 -14.81,29.48c-12.23,4.05 -25.43,-2.58 -29.48,-14.81c-4.05,-12.23 2.58,-25.43 14.81,-29.48c12.23,-4.05 25.43,2.58 29.48,14.81z" fill="#00A083" id="svg_8"/>
    </g>
    <path d="m108.68,74.84c1.16,0.12 2.19,0.15 3.11,0.07c0.91,-0.07 1.67,-0.21 2.27,-0.41c0.54,-0.18 0.95,-0.46 1.25,-0.85c0.29,-0.39 0.36,-0.81 0.21,-1.28c-0.04,-0.11 -0.09,-0.22 -0.15,-0.33c-0.07,-0.11 -0.14,-0.21 -0.23,-0.29c-0.09,-0.09 -0.21,-0.19 -0.38,-0.31c-0.16,-0.13 -0.3,-0.21 -0.41,-0.27c-0.11,-0.05 -0.55,-0.26 -1.31,-0.63c-2.17,-1.05 -3.64,-1.81 -4.4,-2.29c-0.59,-0.37 -1.11,-0.83 -1.55,-1.39c-0.44,-0.56 -0.76,-1.14 -0.97,-1.74c-0.15,-0.48 -0.24,-0.96 -0.25,-1.47c-0.01,-0.5 0.05,-1 0.18,-1.5c0.13,-0.5 0.33,-0.98 0.6,-1.43c0.26,-0.46 0.58,-0.86 0.96,-1.22c0.38,-0.36 0.97,-0.8 1.78,-1.32c-0.08,-0.33 -0.14,-0.53 -0.16,-0.59l-0.35,-1l-0.58,-1.76c1.13,-0.35 2.06,-0.65 2.8,-0.9c0.83,-0.27 1.75,-0.59 2.77,-0.95c0.33,1.16 0.53,1.84 0.59,2.03l0.44,1.33c1.07,-0.19 2.14,-0.31 3.22,-0.36c0.62,1.64 1.29,3.33 2.01,5.07c-0.96,-0.1 -1.82,-0.12 -2.58,-0.05c-0.76,0.07 -1.37,0.18 -1.84,0.33c-0.52,0.17 -0.92,0.44 -1.18,0.8c-0.27,0.35 -0.33,0.72 -0.21,1.1c0.11,0.33 0.31,0.61 0.61,0.83c0.3,0.22 0.69,0.44 1.17,0.67c1.76,0.81 3.07,1.49 3.96,2.03c0.88,0.54 1.56,1.11 2.04,1.7c0.48,0.58 0.83,1.21 1.05,1.87c0.18,0.54 0.28,1.08 0.3,1.6c0.02,0.53 -0.04,1.03 -0.18,1.52c-0.13,0.49 -0.32,0.96 -0.56,1.39c-0.25,0.44 -0.52,0.83 -0.81,1.18c-0.3,0.35 -0.76,0.79 -1.38,1.33l0.62,1.97c0.22,0.64 0.43,1.27 0.64,1.87c-1.13,0.35 -2.02,0.64 -2.68,0.86c-0.66,0.21 -1.63,0.55 -2.91,0.99c-0.18,-0.73 -0.46,-1.65 -0.83,-2.75l-0.21,-0.64c-0.87,0.17 -1.6,0.28 -2.2,0.34c-0.61,0.06 -1.36,0.1 -2.26,0.1c-0.93,-2.56 -1.6,-4.31 -2.01,-5.25z" fill="#FFFAD1" id="svg_9"/>
   </g>
   <g id="svg_10">
    <g id="svg_11">
     <rect fill="#00A083" height="83.77" id="svg_12" width="151.71" x="59.33" y="73.22"/>
     <path d="m202.8,135.04l0,-39.88c-7.57,0 -13.71,-6.14 -13.71,-13.71l-107.81,0c0,7.58 -6.14,13.71 -13.71,13.71l0,39.88c7.57,0 13.71,6.14 13.71,13.71l107.81,0c0,-7.57 6.14,-13.71 13.71,-13.71z" fill="#007863" id="svg_13"/>
     <ellipse cx="1092.57" cy="257.36" fill="#00A083" id="svg_14" rx="23.33" ry="23.33" transform="matrix(0.1608 -0.987 0.987 0.1608 -294.485 1152.11)"/>
    </g>
    <path d="m127.58,119.59c1.07,0.48 2.04,0.82 2.93,1.04c0.89,0.22 1.66,0.33 2.3,0.33c0.56,0 1.04,-0.14 1.44,-0.42c0.4,-0.27 0.6,-0.66 0.6,-1.14c0,-0.12 -0.01,-0.24 -0.04,-0.37c-0.03,-0.12 -0.07,-0.24 -0.12,-0.35c-0.05,-0.11 -0.14,-0.24 -0.26,-0.41c-0.12,-0.17 -0.22,-0.3 -0.31,-0.38c-0.08,-0.09 -0.43,-0.43 -1.04,-1.01c-1.73,-1.68 -2.89,-2.87 -3.46,-3.56c-0.45,-0.54 -0.79,-1.14 -1.03,-1.81c-0.25,-0.67 -0.37,-1.32 -0.37,-1.96c0,-0.49 0.07,-0.98 0.22,-1.47c0.14,-0.48 0.36,-0.94 0.64,-1.37c0.28,-0.43 0.62,-0.82 1.02,-1.17c0.39,-0.35 0.83,-0.63 1.3,-0.85c0.47,-0.22 1.17,-0.45 2.1,-0.69c0.03,-0.35 0.04,-0.55 0.04,-0.62l-0.02,-1.06l0,-1.85c1.18,0.02 2.16,0.03 2.94,0.03c0.87,0 1.85,-0.01 2.93,-0.03c-0.05,1.2 -0.08,1.91 -0.08,2.11l0,1.4c1.07,0.15 2.13,0.38 3.17,0.67c0.08,1.75 0.18,3.57 0.31,5.45c-0.88,-0.4 -1.69,-0.69 -2.43,-0.87c-0.74,-0.17 -1.36,-0.26 -1.85,-0.26c-0.55,0 -1.01,0.13 -1.37,0.39c-0.36,0.25 -0.55,0.58 -0.55,0.98c0,0.35 0.11,0.67 0.32,0.98c0.21,0.3 0.51,0.64 0.9,1c1.41,1.33 2.45,2.38 3.12,3.17c0.66,0.8 1.13,1.55 1.4,2.26c0.27,0.71 0.41,1.41 0.41,2.1c0,0.58 -0.07,1.12 -0.22,1.62c-0.15,0.5 -0.36,0.97 -0.64,1.39c-0.29,0.42 -0.61,0.8 -0.98,1.14c-0.37,0.33 -0.75,0.62 -1.14,0.86c-0.39,0.24 -0.96,0.52 -1.72,0.83l-0.03,2.06c0,0.69 0,1.35 0.01,1.99c-1.18,-0.02 -2.12,-0.03 -2.81,-0.03c-0.69,0 -1.72,0.01 -3.07,0.03c0.05,-0.76 0.08,-1.72 0.08,-2.88l0,-0.67c-0.88,-0.12 -1.61,-0.24 -2.2,-0.37c-0.59,-0.13 -1.32,-0.34 -2.18,-0.62c-0.07,-2.72 -0.16,-4.59 -0.26,-5.61z" fill="#FFFAD1" id="svg_15"/>
   </g>
   <g id="svg_16">
    <path d="m4.96,78.56l0,0l0,111.38c0,6.88 5.57,12.45 12.45,12.45l155.34,0c6.88,0 12.45,-5.57 12.45,-12.45l0,-12.45l0,-86.52l-167.79,0c-6.86,0 -12.42,-5.55 -12.45,-12.41z" fill="#B06C45" id="svg_17"/>
    <path d="m185.2,78.56c0,0.01 0,0.02 0,0.03l0,-0.03l0,0z" fill="#B06C45" id="svg_18"/>
   </g>
   <g id="svg_19">
    <g id="svg_20">
     <path d="m172.75,197.03l-5.88,0l0,-2.3l5.88,0c0.5,0 0.99,-0.07 1.45,-0.22l0.7,2.19c-0.69,0.22 -1.42,0.33 -2.15,0.33zm-13.56,0l-7.69,0l0,-2.3l7.69,0l0,2.3zm-15.37,0l-7.68,0l0,-2.3l7.68,0l0,2.3zm-15.36,0l-7.67,0l0,-2.3l7.67,0l0,2.3zm-15.35,0l-7.67,0l0,-2.3l7.67,0l0,2.3zm-15.35,0l-7.67,0l0,-2.3l7.67,0l0,2.3zm-15.35,0l-7.68,0l0,-2.3l7.68,0l0,2.3zm-15.35,0l-7.67,0l0,-2.3l7.67,0l0,2.3zm-15.35,0l-7.68,0l0,-2.3l7.68,0l0,2.3zm-15.36,0l-7.68,0l0,-2.3l7.68,0l0,2.3zm-15.36,0l-7.67,0l0,-2.3l7.67,0l0,2.3zm158.85,-7.25l-2.3,0l0,-7.65l2.3,0l0,7.65z" fill="#FFFAD1" id="svg_21"/>
     <rect fill="#FFFAD1" height="3.83" id="svg_22" width="2.3" x="177.54" y="171.03"/>
    </g>
    <g id="svg_23">
     <rect fill="#FFFAD1" height="3.83" id="svg_24" width="2.3" x="177.54" y="121.7"/>
     <rect fill="#FFFAD1" height="6.79" id="svg_25" width="2.3" x="177.54" y="108.11"/>
     <polygon fill="#FFFAD1" id="svg_26" points="179.8399658203125,101.31655883789062 177.54296875,101.31655883789062 177.54296875,98.63656616210938 174.86199951171875,98.63656616210938 174.86199951171875,96.33853149414062 179.8399658203125,96.33853149414062 "/>
     <path d="m167.47,98.63l-7.39,0l0,-2.29l7.39,0l0,2.29zm-14.78,0l-7.4,0l0,-2.29l7.4,0l0,2.29zm-14.79,0l-7.39,0l0,-2.29l7.39,0l0,2.29zm-14.78,0l-7.39,0l0,-2.29l7.39,0l0,2.29zm-14.79,0l-7.39,0l0,-2.29l7.39,0l0,2.29zm-14.78,0l-7.39,0l0,-2.29l7.39,0l0,2.29zm-14.79,0l-7.39,0l0,-2.29l7.39,0l0,2.29zm-14.78,0l-7.39,0l0,-2.29l7.39,0l0,2.29zm-14.78,0l-7.39,0l0,-2.29l7.39,0l0,2.29zm-14.79,0l-7.39,0l0,-2.29l7.39,0l0,2.29zm-14.78,0l-7.39,0l0,-2.29l7.39,0l0,2.29z" fill="#FFFAD1" id="svg_27"/>
    </g>
    <path d="m188.6,132.04l-18.85,0c-7.82,0 -14.16,6.34 -14.16,14.16l0,4.15c0,7.82 6.34,14.16 14.16,14.16l18.85,0c3.52,0 6.38,-2.85 6.38,-6.37l0,-19.73c0,-3.52 -2.86,-6.37 -6.38,-6.37z" fill="#9A5F3B" id="svg_28"/>
    <path d="m179.18,148.27c0,4.13 -3.34,7.48 -7.47,7.48c-4.13,0 -7.48,-3.35 -7.48,-7.48s3.35,-7.47 7.48,-7.47c4.13,0 7.47,3.35 7.47,7.47z" fill="#FFFAD1" id="svg_29"/>
   </g>
  </g>
 </g>
</svg>