<?xml version="1.0" encoding="UTF-8"?>
<svg xmlns="http://www.w3.org/2000/svg" width="256" height="256" viewBox="0 0 128 128" role="img" aria-label="Kullanıcı dostu tasarım ikonu">
  <defs>
    <linearGradient id="g" x1="0" y1="0" x2="1" y2="1">
      <stop offset="0%" stop-color="#6ccf8c"/>
      <stop offset="100%" stop-color="#1f7a4c"/>
    </linearGradient>
    <style>
      .stroke{stroke:#0F3D2E;stroke-width:4;stroke-linecap:round;stroke-linejoin:round;}
      .thin{stroke:#0F3D2E;stroke-width:2;stroke-linecap:round;stroke-linejoin:round;}
    </style>
  </defs>

  <!-- UI card representing 'tasarım' -->
  <g id="ui-card" transform="translate(12,16)">
    <rect x="0" y="0" rx="12" ry="12" width="104" height="72" fill="url(#g)" class="stroke"/>
    <!-- top bar pills -->
    <circle cx="12" cy="12" r="3" fill="#d7f0e1"/>
    <circle cx="22" cy="12" r="3" fill="#d7f0e1" opacity="0.8"/>
    <circle cx="32" cy="12" r="3" fill="#d7f0e1" opacity="0.6"/>
    <!-- layout hints -->
    <rect x="12" y="26" width="36" height="28" rx="6" fill="#d7f0e1" class="thin"/>
    <rect x="56" y="26" width="36" height="10" rx="5" fill="#d7f0e1" class="thin"/>
    <rect x="56" y="44" width="36" height="10" rx="5" fill="#d7f0e1" class="thin"/>
  </g>

  <!-- Smiling user for 'kullanıcı dostu' -->
  <g id="user" transform="translate(24,84)">
    <circle cx="20" cy="12" r="12" fill="#d7f0e1" class="stroke"/>
    <path d="M14 12c2 2 4 2 6 2s4 0 6-2" class="thin" fill="none"/>
    <circle cx="16" cy="10" r="1.5" fill="#0F3D2E"/>
    <circle cx="24" cy="10" r="1.5" fill="#0F3D2E"/>
    <!-- shoulders -->
    <path d="M6 36c0-8 6-14 14-14s14 6 14 14" fill="#d7f0e1" class="stroke"/>
  </g>

  <!-- Cursor interacting with UI for 'dostu' feedback -->
  <g id="cursor" transform="translate(78,78) rotate(-6)">
    <path d="M0 0l14 34 4-12 12 8-14-34z" fill="#0F3D2E" stroke="#0F3D2E" stroke-width="2"/>
    <!-- Click ripple -->
    <circle cx="-2" cy="-2" r="8" fill="none" class="thin"/>
    <circle cx="-2" cy="-2" r="12" fill="none" class="thin" opacity="0.6"/>
  </g>

  <!-- Badge: checkmark heart to imply friendly/positive UX -->
  <g id="heart-check" transform="translate(86,10)">
    <path d="M28 18c0 10-14 18-14 18S0 28 0 18c0-5 4-9 9-9 3 0 6 2 8 4 2-2 5-4 8-4 5 0 9 4 9 9z"
          fill="#d7f0e1" class="stroke"/>
    <path d="M6 18l6 6 10-12" class="stroke" fill="none"/>
  </g>
</svg>
