<?xml version="1.0" encoding="UTF-8"?>
<svg xmlns="http://www.w3.org/2000/svg" width="256" height="256" viewBox="0 0 128 128" role="img" aria-label="Web tabanlı erişim ikonu">
  <style>
    .stroke{stroke:#1f7a4c;stroke-width:3;stroke-linecap:round;stroke-linejoin:round;fill:none;}
    .fill{fill:#1f7a4c;}
  </style>

  <!-- Simple globe -->
  <circle cx="64" cy="64" r="28" class="stroke"/>
  <path d="M64 36c8 6 14 16 14 28s-6 22-14 28" class="stroke"/>
  <path d="M64 36c-8 6-14 16-14 28s6 22 14 28" class="stroke"/>
  <line x1="36" y1="64" x2="92" y2="64" class="stroke"/>
  <path d="M44 48c6 4 12 6 20 6s14-2 20-6" class="stroke"/>
  <path d="M44 80c6-4 12-6 20-6s14 2 20 6" class="stroke"/>

  <!-- Creative arrow cursor entering globe -->
  <path d="M82 82l14 34 4-12 12 8-14-34z" class="fill"/>
  <!-- Connection lines to imply 'access' -->
  <line x1="78" y1="78" x2="88" y2="88" class="stroke"/>
  <line x1="88" y1="88" x2="100" y2="92" class="stroke"/>

</svg>
